<svg xmlns="http://www.w3.org/2000/svg" viewBox="0 0 48.26 48.11"><defs><style>.cls-1{fill:#d1d3d4;}.cls-2{fill:none;stroke:#231f20;stroke-miterlimit:10;}.cls-3{fill:#231f20;}</style></defs><g id="globe"><path id="path3315" class="cls-1" d="M16.83,3.23a.92.92,0,0,0-.39.12c.32-.09.47-.12.39-.12m7.88,1.54.08-1.16-1.21.08.16,1.08h1M11,24.69c-.24-.23-.08-1.23-.08-1.23a47.23,47.23,0,0,0-7.64-3.08c-.49-.14-.24-1.15.25-1.53l-.16-1.08c-.08-.54.81-3.16,1.7-3.39S5,15.92,5,15.92l-.89.54s1,1.23,1.3,1.23.65-.62.65-.62l-1.14-.76L6,15.84l.06-.4.18-.06,1.75-2.65c1.21-.49,2.69-1.1,2.88-1.19s2.6-1.46,3-1.77a3.08,3.08,0,0,1,1.62-.23c.33,0,.82-.16.9-1s.4-1,.65-.77-.25.61.32.77,1.06.53,1.46.15-.1-.6-.36-.84h4.51l.49-1.39-1.06-.15-3.9-.39V5.46l-.31,0c.42-2.32,2.93-1.94,1-3.28-.11-.08-1.77,2.6-2.19,2.55-.76-.1-1.74-.11-1.95.14a4.29,4.29,0,0,1,1.4-1.56c-.93.27-2.59-.57-5.57,1.54A53.2,53.2,0,0,0,6.29,9.62c-4.41,5.2-4.77,9.66-4.77,9.85,0,.39.93.6,1,1.07S1,22.54,1,23.31a18.36,18.36,0,0,0,1,9A28.73,28.73,0,0,0,7,41.14l1.13-.6s-1.87-3.31-1.95-3.62,2.11-4.77,3.17-4.61.81.46,1.46.07,1.06-3.54,1.79-3.84,1.54-.7,1.46-1.46S11.23,24.92,11,24.69M28.61,2.07,26.42,1.3l.41,1.24,1.78-.47m-8.2,2.85c.24,0,5.11-3.23,4.63-3.31s-.57,0-1.87-.15-2.68,1.85-3,2.15-.21,1.31.25,1.31M42.78,28.11l.63-.81-.63-.22-.48.59-.55.81.47.23.56-.6m2.75,2.67-.16-1.18h-1l-.08.89-1-.15-.23-1-.47-.3-.55.67-.55-.15-.16.51.63.16v4.81l2.22.54c-.05.09-.08.16-.1.2-.16.52.63.75,1.18.52a3.46,3.46,0,0,0,1.89-1.54,19.08,19.08,0,0,0,1-3.92L48,30.34l-1.57.59-.87-.15h0m-.79-19.72C41.14,5.6,32.5,2,32.5,2L30.27,3.2,30,2.69l-.79-.3v.67l.71.59-.47.22L27.6,4,23.51,6.24,23.9,8l-.47.15-.24.37,1.34,2,.08.67-1.1.22v1.34l-.63.15L23,14l-5.35,3.71.16,2.08c.39.52,3.46,3.63,3.46,3.63s3.54.15,4.32-.3.24.45.48.67.31,1.78.54,1.93,0,1,.32,1.33.31,3.86.31,3.86,1.89,3.19,1.89,4-.08.74,1.42.67a2.79,2.79,0,0,0,2.12-.89c.31-.22.31-.74.63-1.19s.86-2.15,1.57-2.74,2.6-1,2.75-2.07a4.18,4.18,0,0,1,.87-1.86l3.4-3.6-.1.49-.08,1.85,1-.37-.08-2-.37-.39,0-.06s-.23-.44-.55-.44-2.2.44-2.51.37S37.59,19,37.35,18.85a27.77,27.77,0,0,1-1.73-2.6s3.46,4.15,4,5.78c.32.95,1.52.07,2.5-.92l.25.63.63-.15-.08-.74h.71V22l-.23.59-.08,1,.63.59.31-.52,1-1L46.47,22l.32.59.15.81-.31.89-.63.52-.31,1.34v.66L45,26.41,44.9,25l-1,.08-.47,1.26.7,1,1.66.23,1.33-1.26.16-2.45.59-.78a8.44,8.44,0,0,1,.67,3c0,1.06.84-.54.43-3.79,0,0-.65-7.71-4.21-11.27ZM29,14.25l-4.24-.15,1.8-1.48h.95l1.49,1v.59m5.19-.52v.67H32.4l.15.44-1.1.15-.08.37-.78-.14-1.42-.3.24-.37.23-.45.79-.81.32.59,1.17-.07.63-.67,2.44.44-.79.15m.16-1-.94.15-.16-.67,1.18-.15.16-.67.86.89-1.1.45h0m4.56,23.05-.55.45.08,1.11h.71v-1l.63-.82V33.9l-.4-.08-.47,2h0M33.65,33.6s-.55.14.08.37,3.15-3.63,3.15-3.63l-2.13,1.33-1.1,1.93h0M29.37,47.81l-.47-.45L28,47.21l-.16.45-1.25-.15-.08-.59h-.95l-1,.59H22.69l-.15-.45-2.91-.3-.47.45L18,46.92l-.16-1.05-.55-.08-.63,1.13-2.12-.08a21.12,21.12,0,0,0,8.41,2.46c6.44.53,9.51-1,9.51-1L32.2,48l-2.83-.22Z" transform="translate(-0.81 -1.3)"/></g><g id="positive"><path class="cls-2" d="M6.56,33.94s4.33-16,19.21-21.06" transform="translate(-0.81 -1.3)"/><polygon class="cls-3" points="31.89 10.17 23.07 16.31 24.48 11.83 21.29 8.38 31.89 10.17"/></g></svg>