<?xml version="1.0" encoding="utf-8"?>
<!-- Generator: Adobe Illustrator 24.3.0, SVG Export Plug-In . SVG Version: 6.00 Build 0)  -->
<svg version="1.1" id="Layer_1" xmlns="http://www.w3.org/2000/svg" xmlns:xlink="http://www.w3.org/1999/xlink" x="0px" y="0px"
	 viewBox="0 0 467 467" style="enable-background:new 0 0 467 467;" xml:space="preserve">
<style type="text/css">
	
		.st0{fill-rule:evenodd;clip-rule:evenodd;fill:#828282;fill-opacity:0;stroke:#4F4C4D;stroke-width:5;stroke-linecap:round;stroke-linejoin:round;stroke-miterlimit:10;}
</style>
<g transform="scale(9.345,9.345)">
	<g id="ne_110m_admin_0_map_units_Si">
		<g transform="matrix(0.1070091 0 0 -0.1070091 25 25)">
			<path class="st0" d="M-169.7,139.6l18.4-5.3l128.6-20.4l37-0.8l3.5-1.7l6.9-2.4l7-1.5l20.8-3.6l2.2,0.3l5.9,3.5l6.7-3.3l7.1-3.5
				l6-3l5.8-2.8l4.4-4.8l3.5-2.7l10.6-6.9l3-9.5l2.9-9.1l-1.2-6.6l-2.6-6.4l-1.1-4l0-1.1l1.1-1.4l2.8-1.3l1.9,0.3l7.8,7.1l7.4,3
				l8.7,7.1l-0.1,1.1l-1.3,3.1l8.5,5.6l8.8,7l5.8,9.3l2.7,2.7l10.6,2.7l12.9,3.4l4.5,6.3l1.1,5.4l-0.3,8.7l2.8,9.3l6.9,1.1l3.9-2
				l4.5-14l6.3-4.4l2.3-3l-5.8-7.4l-6.1-5.8l-6.5-5.3l-2-7.3l-0.5-2.7l1.5-5.5l4-4.8l3.1,0.6l-1.9,3.6l2.9-1.7l0.3-3.1l-4.5-3.1
				l-8.5-4.1l-3.1-1.4l0.8-1.5l-6.9-7.3L178,41l-4.3-19.3l1-3.9l-4.1-14.1l-0.8,0.3l-4.1,10.9l-2.8,8.6l-0.5-4.9l3.7-8l5-10.2
				l1.6-3.5l3.5-10.3l-3.5-9l-7.9-5l-8.3-8.8l-3.5-4.7l-8.7-12.4l-4-5.9l-3-7l-0.1-7.8l2.8-7.1l4.5-8.6l6.1-11.4l6.5-11.6l1-7.2
				l0.3-4.2l-1.2-6.9l-2.6-1.8l-4.9,0.5l-6.2,6.3l-6.4,8.4l-5.5,7.5l-2,4l0.8,7.4l-3.4,5.5l-8.2,8l-3.7,1.2l-8.4-6l-1.7,0.3
				l-4.9,4.5l-5.9,2l-18-1.9l-6.8-1.3l-3.6-1.9l2-7.1l2.1-2l-1.6-1.5l-6.7-0.9l-6.6-0.1l-7.1,5.3l-14.5,0.6L28-95.1l-7.6-2.7
				l-8.2-8.1l-9.1-4.6l-5.1-5.1l-2.2-4.8l-0.2-7.4L-4-133l1.7-3.7l-3.7-0.3l-6.7,2.5l-7.3,3.6l-2.5,5.2l-1.8,7.6l-12.3,20.4
				l-6.1,4.7l-7.4,0.3l-6.3-8.1l-7.3,3.8l-4.4,3.7l-1.7,6.1l-2.4,5.9L-83.6-68l-15.1,1.9l-0.6-4.4l-24.3,3.6l-18.4,11l-11.9,7.7
				l-9.8,3.1l-9.8,1.4l-0.1,5.7l-4,7.3l-3.7,5.4l-6.7,5.3l-7.3,3.1l-1.6,2.3l0.6,6l-4.8,12.6l-2.3,16.3l-1.4,6.8l-3.2,10.5
				l-0.6,15.6l4.4,8l2.6,8.9l0.3,8.6l5.9,8.8l7.6,18.2l3.2,14.2l0.7,9.5l-0.4,5.4l1.4,1.8l8.3-6.5l0.5-10.8l2.5,2.2l1.5,8.8
				L-169.7,139.6z"/>
		</g>
	</g>
</g>
</svg>
