<?xml version="1.0" encoding="utf-8"?>
<!-- Generator: Adobe Illustrator 25.0.0, SVG Export Plug-In . SVG Version: 6.00 Build 0)  -->
<svg version="1.1" id="Layer_1" xmlns="http://www.w3.org/2000/svg" xmlns:xlink="http://www.w3.org/1999/xlink" x="0px" y="0px"
	 viewBox="0 0 622 622" style="enable-background:new 0 0 622 622;" xml:space="preserve">
<style type="text/css">
	
		.st0{fill-rule:evenodd;clip-rule:evenodd;fill:none;stroke:#4F4C4D;stroke-width:4;stroke-linecap:round;stroke-linejoin:round;stroke-miterlimit:10;}
</style>
<g transform="scale(12.435,12.435)">
	<g id="ne_10m_admin_1_states_provinces">
		<g transform="matrix(0.080418175 0 0 -0.080418175 25 25)">
			<path class="st0" d="M121.6-139l-1.2-0.1l-2.2-0.2l-2.2-0.2l-2.2-0.2l-2.2-0.2l-2.2-0.2l-2.2-0.2l-2.2-0.2l-2.2-0.2l-2.2-0.2
				l-2.2-0.2l-2.2-0.2l-2.2-0.2l-2.2-0.2l-2.2-0.2L88-142l-2.2-0.2l-2.2-0.2l-2.2-0.2l-2.2-0.2l-2.2-0.2l-2.2-0.2l-2.2-0.2l-2.2-0.2
				l-2.2-0.2l-2.2-0.2l-2.2-0.2l-2.2-0.2l-2.2-0.2l-2.2-0.2l-2.2-0.2l-2.2-0.2l-2.4-0.2l0,0.3l-0.2,1l-0.1,0.9l-0.1,0.8l-0.4,1.1
				l-0.5,0.8l-0.6,0.5l-1,0.1l-0.1,0.4l0.2,0.3l0.4,0.2l0.4,0l0.1-0.3l0.6-0.2L50-140l0.2-0.4l0.4-0.7l0.3-0.8l0.2-0.8l0.3-0.2
				l0.3,0.2l0,0.5l-0.5,1.1l0,0.6l-0.4,0.7l-0.4,0.2l-0.6,0.4l-0.3,0.3l0.1,0.4l-1-0.1l-0.4-0.2l-0.4-0.4l0-1.3l-0.3,0.2l-0.3,0.6
				l-0.1,0.4l0.1,1.6l0,0.6l-0.1,0.7l-0.6,1.3l-0.1,0.5l0.3,0.5l0.2-0.1l0.2,0.2l0.2,1.1l-0.1,0.8l-0.5,3l-0.1,0.5l-0.2,0.6
				l-0.4,0.4l-0.7,2.5l-1.2,2l-4.3,5.9l-2.6,1.9l-1.7,1.8l-0.5,0.4l-1.3,0.8l-0.6,0.3l-1.2,1.6l-1.4,1.1l-1.6,1.1l-1.5,0.5l-1.4,1
				l-3.3,3.4l-0.8,0.4l-1,0.5l-0.6,0.2l-0.3-0.2l-0.4,0.2l-0.2,0l0.4-0.4l0.2-0.4l0-0.3l-0.2,0l-0.3,0.3l0,0.3l-0.2-0.2l-0.1,0.2
				l-0.2,0.8l-0.3-0.1l-0.3-0.1l-0.3-0.1l-0.1,0.1l-0.2-0.2l-0.3-0.2l-0.2,0.1l0.1-0.2l-0.1-0.4l0.1-0.5l0.1-0.3l-0.3,0l0-0.2
				l0.2-0.1l-0.2,0l-0.3-0.2l-0.3,0.2l-0.5,0.1l-0.4,0.2l-0.7,0.2l-0.2,0.3l-0.4,0.1l-0.3,0.1l-0.3-0.1l-0.2,0l-0.1,0.2l-0.2,0.1
				l-0.1,0.4l-0.2,0.3l-0.1,0.4l0.2,0.4l0.4,0.3l0,0.2l0.4,0.3l0.1,0.4l0,0.6l-0.2,0.3l-0.1,0.3l-0.3,0.8L13-97.1l-0.6,1.6l-1.1,1.8
				L10.4-93l-0.9,0.6l-0.4,0l-0.4,0.1l-0.4-0.2l-0.2,0.1l-0.4,0l-0.2-0.1l-0.8,0l-0.9,0.1l-0.3,0l-0.1-0.2l-0.1-0.1l-0.4,0.1
				l-0.4-0.1L4-92.7l-0.5,0l-0.2-0.2L2.8-93L2.4-93l-0.1-0.1l0-0.2l-0.1-0.1l0-0.2l-0.1,0l-0.2-0.1l0-0.1l-0.1-0.1l-0.7,0.8
				l-0.7,0.5l-0.3,0l-0.4,0.1l-0.5,0l-0.2,0.1l-0.4,0l-0.2,0.1l-0.3,0.1l-0.2-0.1l-0.5,0.2l-0.7,0.4l-0.6,0.2l-0.3,0L-5-90.8
				l-0.7,0.1l-0.8,0.5l-0.3,0.1L-7.3-90l-0.1,0l0-0.1l0.2-0.1l0.4-0.1L-7-90.5l-0.7,0.2l-0.7,0.6l-1.2,0.9l-0.3,0.1l0,0.1l0,0.1l0,0
				l-0.1,0.1l-0.1,0l0-0.2l-0.1-0.1l-0.1,0l-0.1,0.3l-0.1,0.1l0,0.1l-0.1,0.3l-0.2,0.3l-0.2,0.5l-0.3,0.5l-0.2,0.5l-0.1,0.3l0.1,0.2
				l-0.1,0.1l-0.1,0.3l-0.1,0.4l-0.3,0.5l-0.3,0.2l-0.2,0l-0.2-0.1l-0.3,0.2l-0.2,0.2l-0.2,0.1l-0.3,0.2l-0.3,0.5l-0.3,0.2l-0.2,0.2
				l-0.2,0.1l-0.1,0l-0.2,0l-0.1,0l-0.1,0l-0.1,0.1l-0.2,0.3l-0.3,0.2l-0.2,0.2l-0.3,0.4l-0.2,0.1l-0.2,0l-0.3,0.5l-0.2,0.2l-0.2,0
				l-0.1,0l-0.1-0.1l-0.1-0.1l-0.1,0l-0.1,0.1l-0.1,0.1l-0.1,0.1l-0.2,0.1l-0.2,0l-0.4,0.1l-0.1,0.1l-0.3,0.1l-0.2,0l-0.6,0.5
				l-0.2,0.2l-0.1,0l-0.1,0l-0.1,0l-0.2,0l-0.4,0.2l-0.6,0.1l-0.1-0.1l-0.2,0l-0.3-0.1l-0.6,0l-0.6-0.1l-0.3-0.1l-0.1-0.1l0-0.1
				l0-0.1l-0.3-0.1l0-0.1l-0.2-0.1l-0.4,0l-0.4,0.1l-0.3,0.2l-0.3,0.1l-1,0.4l-0.4,0l-0.2-0.1l-0.7,0l-0.1,0l-0.1-0.1l0-0.1l0-0.1
				l-0.1-0.1l-0.3,0.2l-0.4,0l-0.2,0l-0.1-0.1l-0.3,0.4l-0.3,0l-0.6,0.5l-0.4,0.1l-0.2,0l-0.2,0l-0.2,0.1l-0.2,0.1l-0.4,0.3
				l-0.3,0.1l-0.1,0l-0.6,0.4l-0.4-0.1l-0.4,0.2l-1.6-0.2l-1.2,0.5l-1.1-0.1l-3.6-0.1l-3.9-0.6l-0.6,0l-0.3-0.3l-0.5,0.3l-0.6,1.5
				l-0.5,1.1l-0.8,0.5l-0.6,0.2l-0.6,0.4l-0.5,0l-0.8-0.1l-0.4,0.4l-0.2,0.4l-0.1,0.4l0.2,0.5l0.3,1l0.5,1.1l0.2,0.7l0.1,0.9
				l-0.4,0.7l-0.3,0.6l-0.4,0.5l0.3,0.8l0.3,1.3l0.1,0.9l0.1,0.5l-0.2,0.3l-0.3,0.1l-0.2,0.3l-0.1,0.6l-0.3,0.2l-0.4-0.1l-0.2,0.3
				l0.2,0.9l0.7,2.5l0.3,1.2l0.1,1.4l-0.1,1.2l-0.3,1.1l-0.2,0.2l-0.2,0.2l-0.4,0l-0.2,0.1l-0.6,0.6l-0.2,0.2l-0.5,0l-0.8,0.1
				l-0.2-0.2l0-0.3l-0.1-0.1l-0.2,0l-0.7,0.7l-1.7,0.9l-0.8,0.7l-0.3,0.4l-0.3,0.6l0.1,0.9l0.3,0.4l0.6,1.6l0.2,1.1l0.2-0.5
				l-0.1-0.7l0.1-0.2l0.4,0.1l0,0.3l0.3,0.2l-0.1,0.2l-0.2,0.1l-0.3,0.8l-0.2,0.2l-0.2-0.1l-0.1,1.2l-0.2,0.5l-0.2,0.5l-0.6,0.6
				l-1.1-0.1l-0.5,0.4l-0.6,0.1l-0.7,0l-0.9,1l-0.9,1l-1,1.1l-0.9,1.8l-0.4,0.2l-0.5,0.8l-0.3,0.3l-0.5,0.2l-0.2-0.1l0-0.2l-0.1-0.1
				l-0.6,0.6l-0.5,0.2l-0.5,0.2l-0.5,0.2l-0.6,0l0,0.6l-0.3,0.6l-0.3,0.4l-0.2,0.2l-0.2,1.8l-0.4,0.8l-0.9,0.9l-0.6,0.4l-0.6,0.8
				l-0.1,0.4l-0.4,0.1l-0.5,0.4l-0.6,0.6l0,0.6l-0.3,0.4l-0.2,0.7l-0.1,0.6l-0.1,0.6l-0.1,0.6l-0.5,0.8l-0.5,0.2l-0.5,0.2l-0.8,0.2
				l-0.5,0.6l-0.3,0.5l-0.1,0.5l-0.3,0.3l-0.3,0.5l-0.4,1l-0.4,0.4l-0.4,0.7l-0.6,0.7l-0.5,0.3l-0.3,0.4l-0.7,0.6l-0.7,0.5l-0.8,0.5
				l-0.5,0.3l-0.3-0.1l-0.4,0.2l-0.3,0.4l-0.1,0.4l-0.2,0.5l-0.2,0.3l-0.3,0.1l-0.3,0.2l-0.2,0.3l-0.5,0.2l0.1,0.3l0,0.5l0.1,0.1
				l0,0.2L-89-9.6L-89-9.3L-89.1-9l-0.1,0.4l0,0.2l0.1,0.3L-89.2-8l-0.1,0.3l-0.2,0.2L-89.5-7l0.1,0.3l-0.1,0.3l-0.3,0.6l0,0.2
				l0,0.3l-0.2,0.2l-0.2,0.7l0,0.2l0.1,0.2l0,0.2l0,0.1l0.1,0.2l-0.2,0.1l-0.2,0.1l0,0.2l0.2,0l0.2,0l0.4,0l0,0.3l0,0.2l-0.1,0
				l-0.1,0.2l0.1,0.1l0,0.3L-90-1.7l-0.2-0.1l-0.1,0.2l-0.1,0.1l-0.1-0.1l-0.1-0.1l-0.5,0.3l-0.2,0.2l-0.1,0.3l0.2,0l0.2,0l0,0.3
				l0.1,0.3l0.1,0.4l0.1,0.1l0.2-0.2l0.1,0.3l0.1,0.3l0,0.3l0.1,0.2l0.2,0l0.2-0.2l0-0.2l0.2-0.2l0.3-0.1l0.2-0.3l0.2-0.4l0.3,0
				l0.3,0.2l0.5,0.5l0.5,0.6l0.3,0.8l0.4,1l0.1,1.3l0.1,0.7l0.4-0.3l0.8-0.3l0.1,0.3l-0.2,0.2l-0.1,0.1l-0.1-0.1l-0.3,0l-0.2,0.1
				l-0.1,0.2l-0.2,0.2l0.1,1.1l0.2,1l-0.4,1.1l-1.6,3.4l-0.8,1l-0.5,0.5l-0.9,0.3l-0.5-0.3l-0.3-0.4l-0.3-0.2l-0.6,0.2l-0.4,0.1
				l-0.4,0l-0.1-0.1l0-0.1l0-0.2l-0.3,0.1l-0.4-0.2l-0.4,0l-0.6,0.1l-0.7,0.2l-0.4,0.3l-0.4,0.1l-0.2,0.3l-0.3,0.1l-0.7,0.7
				l-0.9,0.9l-0.4,0.2l-0.2,0.6l-0.8,0.7l-0.4,0.6l-0.4,0.7l-0.3,0.3l-0.2,0.3l-0.3,0.2l-0.3,0l-0.3-0.1l-0.3,0.2l0,0.6l-0.6,0.6
				l0,0.4l-0.2,0.4l-0.4,0.3l-0.4,0l-0.2,0.5l-0.1,0.8l-0.1,0.4l-0.2,0.3l-0.1,0.7l0.2,0.6l0.1,1l0.1,1.7l0.1,0.7l-0.2,0.2l-0.1,0.4
				l-0.5,1.2l-0.4,1.1l-0.1,1.4l-0.4,0.7l-0.5,0.2l-0.2,0l-0.2-0.1l0-0.2l-0.1-0.1l-0.1,0.3l-0.3,0.3l-0.2,0.8l0.1,0.5l0.1,0.6
				l-0.2,0.5l0,0.6l-0.1,0.1l0.1,0l0.1,0.1l0.2,0l0.1,0.1l0,0.2l0.2,0.8l0,1.4l-0.2,1.4l-0.2,0.8l-0.2,1l0,1.1l0.3,0.2l0.2,0
				l0.3,0.1l0.3,0.7l0.4-0.2l1.3,0.2l0.3,0l0.3-0.3l0.3-0.5l0-0.5l0.2-0.2l0-0.4l0.1-0.3l0.1-0.2l0.2-0.4l0.4-0.4l-0.2-0.6l-0.4,0.1
				l-0.1-0.3l-0.4,0.1l0.1-1.2l0.2,0l0-0.4l0.2-0.4l-0.2-0.3l-0.1-0.4l0-0.2l0.6-0.2l0.3-0.5l-0.2-0.2l-0.3,0.2l-0.1-0.3l0.3-0.2
				l0.1-0.3l0.8-0.1l0.4,0l0-0.2l0.5-0.3l0.5-0.1l0.7-0.1l0.2-0.1l0.2-0.6l0.2-0.2l0.3-0.1l0.6-0.2l0.3-0.2l0-0.3l-0.2-0.3l0.4-0.1
				l0.3-0.3l0.3-0.1l0.4,0l0.3-0.2l0.4,0l0.3-0.5l0.3-0.6l0.3-0.5l0.6-0.2l0.6,0l0.6,0.1l0.2,0.4l-0.3,0.2l-0.2,0l-0.1,0.1l0,0.2
				l0,0.3l0,0.2l-0.2,0.3l-0.1,0.2l-0.2,0.1h-0.7l-0.5,0.5l-0.2,0.9l-0.9,1.3l-0.2,1.4l-0.3,1.8l-0.7,1l-0.2,0.4l-0.4,0.4l-0.2-0.4
				l-1.1,0.9l-0.3,0.8l0.4,0.2l1.1-0.2l-0.1,0.6l-0.1,0l-0.1-0.2l-0.4,0l-0.9,0.3l-0.4,0l-0.2,0.1l-0.3,0.2l0.1,0.3l-0.3,0L-101,43
				l-0.6,0.2l0.1,0.5l0.1,0.2l0,0.1l-0.1,0l-0.3,0l0,0.1l0.2,0.2l0.4,0l0.2,0.2l-0.3,0.1l0.3,0.2l0.5,0l0.2,0.2l-0.1,0.3l-0.2,0.9
				l-0.4-0.1l-0.1,0.3l0.3,0.1l-0.2,0.6l-0.4,0.8l-0.6-0.1l-0.5-0.1l-0.8,0.1l0.1,0.5l-0.3,0.3l-0.4,0.1l-0.3,0.6l-0.2,0.6l0.5-0.1
				l0.5-0.2l0.1,0.5l0.8,0.4l0.3,0.3l-0.3,0.6l0.1,0.3l0.6-0.2l0.3-0.1l0.4,0.1l0.2,0.2l0.5,0l0.6,0.5l0,0.5l0.3,0.3l0.4,0.4
				l0.7,0.1l0.7-0.2l0.5-0.2l0.5-0.7l0.6-0.2l0.7,0.2l1.2,0.7l0.8,0.2l1.4,0.1l1.9-0.4l1.5-0.1l0.3-0.3l1.2-0.4l1.7-0.3l0.8,0.1
				l0.8-0.3l0.6-0.1l0.4,0l0.3,0.3l-0.4,0.3l-0.5-0.1l-0.4,0.1l0.1,0.2l0.5,0.1L-83,53l0.3,0.1l0.1,0.1l0.1,0.3l0.1,0.4l0,0.3
				l0.1,0.3l0.3,0.1l0.7,0l0.4,0.1l0,0.2l0.2,0.1l0.3,0l0.3-0.2l0.4-0.1l0.1-0.3l0.1-0.3l-0.2-0.2l-0.1-0.2l-0.4-0.1l-0.3,0.1
				l-0.3,0l-0.2-0.4l-0.1-0.2l0.3-0.3l0.3-0.6l0.2-0.1l0.2,0.1l0.4,0.3l0.1,0.3l0.1,0.4l0,0.4l0,0.2l0.3,0.1l0.4-0.3l0.2-0.1
				l0.3-0.2l0.3-0.4l0.4,0l0.3-0.3l0.6-0.3l0.6-0.7l0.4-0.3l0,0.3l-0.4,0.6l-0.5,0.6l-0.3,0.3l-0.5,0.2l-0.3,0.2l-0.4,0l-0.1,0.2
				l-0.2,0.2l-0.2,0l-0.2,0l-0.5,0.6l-0.2,0.6l-0.4,0.2l-0.5,0.1l-0.7,0l-0.1-0.1l-0.2-0.3l-0.1-0.1l-0.2,0.1l-0.2,0.1l-0.2,0.1
				l-0.5-0.2l-0.2-0.4l-0.1-0.3l0-0.5l-0.3-0.4l-0.6-0.4l-0.6-0.4l-0.7,0l-0.3,0.2l-0.2,0.3l0,0.3l0.1,0.3l0.3,0.3l0.3,0.1l0.4,0.1
				l0.3,0.1l0.6,0.5l0.4,0.5l0.4,0.7l0.2,0.9l-0.2,0l-0.5-0.9l-0.5-0.5l-0.7-0.8l-0.6-0.3l-1-0.6l-0.6,0.2l-0.7,0.1l-0.5-0.1
				l-0.2-0.2l-0.4-0.3l-0.5-0.1l-0.5,0l-0.4,0.2l0.2,0.2l0.1,0.2l0.2,0.4l-1.4,0l-0.5-0.2l-0.5,0.3l-0.7,0.6l0.9,0.5l-0.1,0.5
				l-0.3,0.5l-0.5,0.1l-0.6-0.1l-0.5-0.1l-0.3-0.2l-0.1-0.2l0.1-0.3l-0.3-0.5l-0.5-0.6l-0.8-0.9l-0.2-0.4l-0.1-0.3l-0.8,0l-0.2,0.4
				l-0.5,0.4l-0.2-0.1l-0.2,0l-0.3,0.1l-0.5,0l-0.6,0.2l-0.5-0.1l-0.3,0.2l-0.3,0.4l-0.6,0.8l-2.8,1.7l-0.4-0.7l-0.7-0.4l-0.4,0
				l-0.3-0.3l-1.3-0.2l0.4-0.3l0.1-1l-0.3-1l-0.3-0.7l-0.1-0.3l0-0.2l0.4-0.2l0.7-0.3l0.5-0.3l0.3-0.5l-0.2-0.2l-0.2,0.1l-0.3,0
				l-0.2-0.2l-0.5-0.2l0-0.4l0.3-0.4l0.1-0.3l-0.3-0.2l-0.3,0.2l0-0.2l0-0.4l0.8-0.3l0.1-0.2l-0.1-0.2l0.4-0.4l0.3-0.1l0.3-0.4
				l-0.3-0.3l-0.2,0l-0.1,0l0-0.3l-0.3,0.2l-0.1,0.3l0,0.2l-0.1,0.3l-0.4,0.3l-0.3,0l0.1-0.3l0.1-0.3l-0.1-0.2l0.3-0.3l0.3-0.2
				l-0.1-0.2l0.1-0.4l0.2-0.4l-0.2-0.2l-0.3,0l-0.4-0.2l-0.3,0.1l-0.3-0.1l-0.2-0.2l-0.3,0.4l-0.3,0.2l-0.5,0.5l-0.3,0.3l-0.4,0.2
				l-0.4,0.5l-0.6,0.2l-0.7,0.8l-0.8,0.3l-0.4-0.1l-0.3-0.2l-0.1-0.3l-0.4,0.3l-0.4,0.1l-0.2,0.6l-0.4,0.5l-0.5,0.2l-0.4,0.4l-0.5,1
				l-0.4,0.4l-0.3,0.5l-0.5,0.3l-2,0.9l-0.4,0.1l-0.3,0.5l0,0.3l0.4,0.2l-0.4,0.2l-0.2-0.2l-0.2-0.2l0-0.2l0-0.4l0.1-0.2l0.2-0.4
				l-0.4,0l-0.4-0.2l-0.5-0.4l-0.1-0.4l0.1-0.2l0.3-0.1l0.3-0.2l-0.3-0.1l-0.3,0.1l-0.4,0.1l-0.6,0l-0.3,0l0.2,0.2l0.2,0l0.7,1.8
				l1.2,3.6l0,0.8l-0.2,0.4l-0.3,0.2l0,0.6l-0.3,0.4l-0.3,0.5l-0.3,0.4l-0.1,0.5l0.3-0.2l0.6-0.8l1.2-1.6l0.5-0.9l0.5-0.8l0.7-0.8
				l0.7-0.7l0.5-0.7l-0.2,0.9l-0.5,0.6l-1.1,1.6l-1.4,2.3l-0.2,0.1l-0.2-0.1L-120,60l-0.3,0l-0.1,0.2l0,0.5l-0.2,0.6l-0.4,0.4
				l-0.4,0.6l-0.8,0.7l-0.5,0l-0.2-0.3l0-0.3l-0.3-0.1l-0.4,1l0.2,0.9l-0.1,0.5l-0.2,0.5l-0.2,0.7l-0.3,0.2l-0.2,0.6l-0.3,0.3
				l-0.3,0.6l-0.1,0.4l-1.2,1.1l-2.4,1.2l-0.6,0.7l-0.9,0.8l-0.3,0.3l-0.6,0.4l-0.1,0.7l-0.4,0.4l-0.3,0.1l-0.1,0.4l-0.9,1.2
				l-0.4,0.9l-0.5,0.4l0,0.3l-1.2,1.3l-0.5,0.5l-0.9,0.4l-0.4,1l-0.6,0.4l-0.2,0.5l-0.8,0.4l-0.7,0.8l-0.9,0.8l-0.4,0.9l-1,1
				l-0.4,0.5l-0.4,0.2l0,0.6l-0.4,0.8l0.5,0.2l0.6,1.1l0.2,0.7l0.2,0.8l-0.1,0.4l-0.1,0.8L-142,92l-0.3,0.9l-0.3,1l-0.5,0.4l0.1,0.6
				l-0.9,1.3l-0.3,1.1l-0.4,1.8l-0.4,0.3l0.2,0.7l-0.3,0.3l0,0.7l-0.6,0.9l0.1,2.2l0.1,1.5l0.5,1.8l0.7,1.5l0.2,0.6l0,0.7l-0.5,1.3
				l0,2.2l-0.1,0.4l0,0.4l-0.2,0.6l-0.2,0.4l-0.2,0.4l-0.4,0.2l-0.2,0.3l0,0.6l-0.2,0.8l0,0.8l-0.2,1l-0.3,1l-0.8,0.4l-0.8,0.8
				l-0.7,1.6l-0.7,0.6l-0.7,1.5l-0.7,0.6l-0.6,0.9l-0.3,0.4l-0.3,0.3l-0.4,0.2l-0.1,0l-0.2,0l-0.2,0.2l-0.1,0.3l0,0.9l-0.2,0.7
				l-0.8,1.1l-0.7,0.3l-1.4,0.5l-1,1.4l-1.1,0.7l-1.8,1.5l-0.2,0.5l-0.5,0.2l-0.6,0.7l0.1,0.8l0.3,1.4l-0.5,1l0,1.3l-0.9,1.5
				l-0.3,1.1l0.4,0.8l0.2,0.7l0.1,0.6l-0.1,0.4l0.5,1.1l0.4,1l0.2,0.6l0.8,1.5l0.1,0.4l0.1,0.1l0.1,0.1l0.1,0l0.1,0.1l-0.1,0.2
				l-0.1,0.2l0.1,0.3l0.4,0.9l0.6,0.9l0.6,1.3l0.4,0.9l0.3-0.3l-0.5-0.9l-0.3-0.8l0-0.3l0.3-0.2l0.4-0.1l0.3-0.2l0.1,0.2l-0.1,0.2
				l0.1,0.1l0.2,0.1l0,0.3l-0.3,0.5l0.1,0.3l-0.1,0.3l0.2,0.2l0.3,0.1l0.1,0.4l-0.1,0.3l0.1,0.3l0.2,0.1l0.1,0.7l0.2,0.4l0.2,0.1
				l0.3,0.1l0.5,0.1l0.3-0.1l0.4,0l0.4,0.3l0.6,0.4l0.1,0.7l-0.1,0.2l-0.3,0.2l-0.2,0.2l-0.2-0.1l-0.3-0.1l-0.2,0.1l-0.2,0.2
				l-0.2,0.2l-0.4,0l-0.1-0.1l0-0.4l-0.3-0.4l-0.1-0.6l-0.4-0.4l-0.3-0.5l-0.2-0.7l-0.7-1.1l-0.3,0.4l0.5,0.8l1.2,2.4l1.3,3.4
				l0.4,1.7l0.3,1.4l0,1l-0.2,0.3l-0.3,0l-0.2-0.1l-0.2,0.2l-0.1,0.3l-0.1,0.6l-0.2,0.4l-0.2,0.5l0,0.6l-0.1,0.7l0,0.3l0.2,0.1
				l0.3-0.1l0.1,0.2l0.6,1.4l0.3,1.5l0.7,2.7l0.3,2l0.4,2.2l0.2,1.4l-0.4,2.1l-0.2,1.2l0.4,0.7l-0.3,0.2l-0.3,0.2l-0.2,0.3l-0.2,0.4
				l0,0.4l0,1l-0.1,0.2l-0.2,0.4l-0.3,0.9l-0.4,1l0,0.6l-0.2,1l-0.4,1.2l-0.5,0.3l-0.3,0.1l-0.2-0.1l-0.1-0.2l-0.9,0.9l-0.9,0.6
				l0.1,0.5l0.4,0.2l0.4,0.8l0.4,1.4l0.2,1.6l0.3,2.7l0,0.4l-0.1,0.4l-0.2,0.7l0,0h0.8h7.7h7.7h7.7h7.7h7.7h7.7h7.7h7.7h7.7h7.7h7.7
				h7.7h7.7h7.7h7.7h7.7l0-7.2l0-7.2l0-7.2l0-7.2l0-7.1l0-7.1l0-7.1l0-7.1v-7.1l0-7l0-7l0-7l0-7l0-7l0-7l0-6.9v-2.1l0-0.5l6.9-6.2
				l6.9-6.2l6.9-6.1l6.9-6.1l6.9-6.1L8,52l6.9-6.1l6.9-6.1l5.4-5.1l5.4-5.1l5.4-5.1l5.4-5.1l5.4-5.1L54,9.4l5.4-5l5.4-5l4.7-4.6
				l4.7-4.6l4.7-4.6l4.7-4.6l4.7-4.6l4.7-4.6l4.7-4.6l4.7-4.6l5.3-5.1l5.7-5.4l5.5-5.1l5.5-5.1l0-0.3l0.3-4.2l0.2-0.4l0.5-0.2
				l0.4-0.2l0.3-0.5l0.2-0.6l0.1-0.4l0.1-1l0.4-0.7l0.6-0.4l0.8-0.1l1.9-4l0.1-0.1l0.1-0.2l0-0.3l0-0.8l0-0.2l0.4-0.6l0.4-0.3
				l0.3-0.4l0.1-0.7l0,0l0.3-0.4l-0.1-0.5l-0.2-0.5l0,0l0-0.3l0.1-0.4l0.1-0.2l0.2-0.2l0.2-0.1l0.4,0l0.1,0l0.1,0l0.1-0.1l0.2-0.3
				l0.1-0.1l0.6-0.4l0.1-0.1l0.4-0.5l2.4-1.8l0.5-0.3l0.3-0.2l0.3-0.4l0.9-0.6l0-0.5l0.2-0.7l-0.2-0.5l-0.9-0.7l-1-1l-0.9-1.2
				l-0.6-0.2l-3-2.1l-1.1-0.3l-0.5-0.5l-0.3-0.7l-0.2-1.5l-0.3-0.7l-0.5-0.6l-0.5-0.5l-1.2-0.8l-0.5-0.5l-0.2-0.8l0.1-0.4l0.2-0.4
				l0.6-0.7l0-0.3l-0.2-0.3l-0.5-0.4l0.1-0.5l0-0.9l0.1-0.9l0.4-0.4l0.1-0.2l0-0.4l0-0.4l-0.1-0.2l-0.2-0.2l0.1-0.4l0.3-0.6
				l-0.2-0.5l-0.3-0.4l-0.3-0.5l-0.1-0.9l0-0.8l0-0.4l-0.1-0.2l-0.3-0.2v-0.5l0.2-0.8l-0.1-0.5l-0.1-0.2l-0.4-0.5l-0.6-0.6l-0.3-0.4
				l-0.3-0.9l-1.1-2.1l-0.5-0.4l-0.7-0.2l-1.4-0.1l-0.3-0.2l0.1-0.4l0.3-0.4l0.2-0.3l0.2-0.4l-0.1-0.3l-0.4-0.4l-0.3-1l0.1-0.5
				l0.9-1.1l0.2-0.5l0.3-2l-0.2-1.5l-0.4-1.3l-0.1-1.2l0.9-1.2l1.2-0.5l2.7-0.2l1-0.6l0.8-1.2l0.1-0.4l0-0.3l-0.1-0.3l0-0.4l0.5-2.2
				l-0.1-0.8l-0.3-0.5l-1.1-0.8l-0.4-0.5l-0.1-0.6l0-0.6l0-0.6l-0.3-0.5l-1.2-0.3l-3.1,0.6l-1.1-0.8L121.6-139z M14.9-135l0.2-0.3
				l-0.4-0.1l-0.6,0.3l-0.5-0.2l-0.1-0.3l-0.2-0.1l-0.4-0.3l-0.1,0l-0.3,0.5l-0.3,0.1l-0.7,0.7l-0.5,0.2l-0.3,0.2l-0.2,0.5l-0.1,0.4
				l-0.3,0.3l-0.3,0.6l-0.2,0.1l-0.3,0.5l0,0.6l-0.1,0.3L9-130.6l-0.5,0.6l-0.1,0.7l-0.2,0.5L8-128.5l-0.4,0l0,0.6l0.3,0.2l0.2-0.2
				l0.4,0.1l0.4-0.3l0-0.2l0.2-0.4l0.3-0.2l0.1-0.6l0.9-1l0.3-0.6l0.6-0.7l0.5-0.2l0.5-0.6l1.3-1.2l0.7-0.6L14.9-135z M-18.2-119.6
				l0.2-0.1l0.6-0.2l0.6-0.5l0.3-0.4l0-0.3l-0.1-0.1l-0.2,0l-0.3-0.1l-0.4,0l-0.1,0l-0.4,0.1l-0.1,0l-0.1,0l-0.2,0.1l-0.4,0
				l-0.2,0.2l-0.6,0.1l-0.7,0.6l0,0.2l-0.2,0.2l0,0.2l-0.2,0.4l0,0.1l0.5-0.3l0.3,0.3l0.2,0l0.3,0.2l0.6-0.3l0.5-0.4L-18.2-119.6z
				 M10.3-114.2l-0.2,0.2l-0.3,0l-0.1,0l-0.2,0.1l-0.2,0l-0.2,0l-0.2,0.1l-0.2,0l0,0.1l0,0.2l-0.1,0.1l-0.2,0.2l-0.2,0.3L8-112.6
				l-0.2,0.2l-0.1,0.2l0.2,0l0.3,0l0.3,0l0.2-0.1l0.2,0l0.5,0.1l0.2,0l0.1,0.1l0.2-0.3l0.2-0.1l0.2-0.2l0.3-0.2l0.2-0.1l0-0.1l0-0.2
				l0.2,0l0.1,0.1l0.1,0.1l0,0.1l0.2,0l0.1-0.2l0.1,0l0.2-0.1l0.2-0.2l0.2-0.1l0.2-0.1l0.2,0l0.1-0.1l0.1,0l0.2,0l0.8-0.4l0.2,0.1
				l0.2-0.2l0.1,0l0.2,0l0.1-0.1l0-0.1l0-0.2l-0.1-0.1l0-0.2l0.1,0l0.2-0.4l0.3-0.4l0.3-0.3l0.2-0.4l0-0.2L16-117l0.2,0l0.3-0.2
				l0.1-0.6l-0.1,0l-0.1-0.2l0.2-0.2l-0.2-0.1l-0.1-0.1l-0.3-0.1l-0.6,0.2L15-118l-0.3,0.1l-0.3,0.2l-0.6,0l-0.4,0l-0.4-0.1
				l-0.6,0.1l-0.6,0.2l-0.3,0.3l-0.3,0.5l-0.2,0.4l0.2,0.3l-0.1,0.1l0.2,0.3l0.2,0.1l-0.1,0.2l-0.2,0.6l0.1,0.1l-0.1,0.1l0,0.3
				l-0.1,0.1l-0.2,0.1l-0.2,0.1l-0.2,0L10.3-114.2z M-34.6-92.5l0.1-0.3l-0.2-0.4l0.1-0.4l0.4-0.5l0.8-0.4l0.8,0.2l0-0.9l0.2-0.2
				l0.1-0.4l-0.9,0l-0.6-0.3l-0.9-0.7l-0.6-0.1l-0.3-0.2l-0.6,0l-0.2-0.3l0-0.2l-0.4,0.1l-0.3,0.3l-0.6,0.3l-0.7,0.4l-0.3,0.5
				l-0.1,0.3l-0.3,0.3l-0.4,0.7l-0.3,0.1l-0.2,0.4l-0.3,0.1l-0.3,0.3l0.4,0.3l0.6,0.1l0.5-0.2l0.4,0.1l0.4-0.1l0.4,0.3l0.4,0.3
				l0.3,0l1.2-0.2l0.7,0.2l0.4,0.5L-34.6-92.5z M-43.4-92.2l0.3,0.1l0.2-0.1l0.4-0.3l0.2-0.2l0.1-0.3l-0.1-0.3l-0.6,0l-0.6,0
				l-0.3-0.2l-0.4,0.1l-0.3,0.2l-0.3,0.1l-0.4,0.2l-0.3,0l-0.3-0.3l-0.4,0.2l-0.2,0l-0.1,0.2l0.3,0.1l0.7,0.6l0.3-0.1l0.3,0.1
				l0.4,0.3l0.3,0.4l0,0.2l0.2-0.2l0.1-0.2l0.1-0.2l-0.1-0.2l0.1-0.2L-43.4-92.2z M-19.4-92.9l-0.4-0.2l-0.1-0.2l-0.1-0.3l-0.3-0.3
				l-0.6,0l-0.3-0.2l-1-0.1l-0.6,0l-0.4,0l-0.3-0.1l-0.2-0.2l-0.3-0.1l-0.1-0.1l-0.4-0.2l-0.2,0l-0.2-0.2l-0.2-0.1l-0.7,0.1l-0.3,0
				l-0.2-0.2l-0.4,0.1l-0.5,0l-0.4,0.1l-0.5-0.1l-0.2,0.3l-0.4,0.1l-0.3-0.1l-0.5,0.4l-0.2,0l-0.2,0.4l-0.1,0.4l-0.1,0.2l0.3,0.6
				l0,0.3l-0.3,0.2l-0.4,0.4l-0.4,0.2l-0.2,0.1l-0.1-0.1l-0.2,0l-0.1,0.2l0.3,0.2l0.1,0.2l0.1,0.2l0.4-0.2l0.5,0l0.9-0.1l0.6-0.2
				l0.3-0.3l0.5-0.1l0.6,0.2l0.3,0l0.5,0L-26-92l0.3,0l0.2-0.2l0.1,0.1l0.6-0.2l0.2-0.3l0.3-0.2l0.2-0.3l0.2,0l0.3-0.1l0.4,0.1
				l0.6-0.2l0.5,0.2l0.2,0.4l-0.1,0.4l0.6,0.4l0.4,0l0.3,0.2l1-0.5l0.3-0.3L-19.4-92.9z M18.6-102.2l0.2,0.1l0.1-0.3l-0.6-0.2
				l0.2-0.8l-0.4-0.2l0.1-0.3l-0.4,0.1l-0.1,0.3l0.1,0.2l0.4,0.2l-0.1,0.5l-0.1-0.1l0.1-0.4l-0.3-0.1l-0.2-0.2l-0.1,0.4l0.1,0.3
				l0.4,0.4l0.1,0l0.1,0.1L18.6-102.2z"/>
		</g>
	</g>
</g>
</svg>
