<?xml version="1.0" encoding="utf-8"?>
<!-- Generator: Adobe Illustrator 24.3.0, SVG Export Plug-In . SVG Version: 6.00 Build 0)  -->
<svg version="1.1" xmlns="http://www.w3.org/2000/svg" xmlns:xlink="http://www.w3.org/1999/xlink" x="0px" y="0px"
	 viewBox="0 0 100 100" style="enable-background:new 0 0 100 100;" xml:space="preserve">
<style type="text/css">
	.st0{fill:#646464;}
	.st1{fill:#0A0A0A;}
</style>
<g id="Layer_1">
	<path class="st0" d="M78.9,30.3H67.4c-5.2,0-9.5-4.3-9.5-9.5V9.3c0-0.3,0.2-0.5,0.5-0.5s0.5,0.2,0.5,0.5v11.5
		c0,4.7,3.8,8.5,8.5,8.5h11.5c0.3,0,0.5,0.2,0.5,0.5S79.2,30.3,78.9,30.3z"/>
	<path class="st0" d="M70.2,89.3H26.7c-5.4,0-9.7-4.4-9.7-9.7V18c0-5.4,4.4-9.7,9.7-9.7h32c0.3,0,0.5,0.1,0.7,0.3l20.2,20.2
		c0.2,0.2,0.3,0.4,0.3,0.7v50C79.9,84.9,75.6,89.3,70.2,89.3z M26.7,10.3c-4.3,0-7.7,3.5-7.7,7.7v61.5c0,4.3,3.5,7.7,7.7,7.7h43.5
		c4.3,0,7.7-3.5,7.7-7.7V30L58.3,10.3H26.7z"/>
	<path class="st0" d="M73.4,48.3c-0.3,0-0.5-0.2-0.5-0.5v-3c0-0.3,0.2-0.5,0.5-0.5s0.5,0.2,0.5,0.5v3C73.9,48.1,73.7,48.3,73.4,48.3
		z M73.4,56.3c-0.3,0-0.5-0.2-0.5-0.5v-6c0-0.3,0.2-0.5,0.5-0.5s0.5,0.2,0.5,0.5v6C73.9,56.1,73.7,56.3,73.4,56.3z M66.3,83.3H30.6
		c-4.2,0-7.7-3.4-7.7-7.7V23c0-2.5,1.2-4.8,3.2-6.2c1.3-0.9,2.9-1.5,4.5-1.5c0.3,0,0.5,0.2,0.5,0.5c0,0.3-0.2,0.5-0.5,0.5
		c-1.4,0-2.7,0.4-3.9,1.3c-1.7,1.3-2.8,3.3-2.8,5.4v52.7c0,3.7,3,6.7,6.7,6.7h35.7c3.7,0,6.7-3,6.7-6.7V57.8c0-0.3,0.2-0.5,0.5-0.5
		s0.5,0.2,0.5,0.5v17.8C73.9,79.9,70.5,83.3,66.3,83.3z"/>
	<path class="st0" d="M49.4,52.3h-21c-0.3,0-0.5-0.2-0.5-0.5s0.2-0.5,0.5-0.5h21c0.3,0,0.5,0.2,0.5,0.5S49.7,52.3,49.4,52.3z
		 M41.4,59.3h-13c-0.3,0-0.5-0.2-0.5-0.5s0.2-0.5,0.5-0.5h13c0.3,0,0.5,0.2,0.5,0.5S41.7,59.3,41.4,59.3z M68.4,59.3h-24
		c-0.3,0-0.5-0.2-0.5-0.5s0.2-0.5,0.5-0.5h24c0.3,0,0.5,0.2,0.5,0.5S68.7,59.3,68.4,59.3z M59.4,66.3h-11c-0.3,0-0.5-0.2-0.5-0.5
		s0.2-0.5,0.5-0.5h11c0.3,0,0.5,0.2,0.5,0.5S59.7,66.3,59.4,66.3z M69.4,66.3h-8c-0.3,0-0.5-0.2-0.5-0.5s0.2-0.5,0.5-0.5h8
		c0.3,0,0.5,0.2,0.5,0.5S69.7,66.3,69.4,66.3z M45.4,66.3h-17c-0.3,0-0.5-0.2-0.5-0.5s0.2-0.5,0.5-0.5h17c0.3,0,0.5,0.2,0.5,0.5
		S45.7,66.3,45.4,66.3z M68.4,73.3h-14c-0.3,0-0.5-0.2-0.5-0.5s0.2-0.5,0.5-0.5h14c0.3,0,0.5,0.2,0.5,0.5S68.7,73.3,68.4,73.3z
		 M52.4,73.3h-24c-0.3,0-0.5-0.2-0.5-0.5s0.2-0.5,0.5-0.5h24c0.3,0,0.5,0.2,0.5,0.5S52.7,73.3,52.4,73.3z M49.4,45.3h-21
		c-0.3,0-0.5-0.2-0.5-0.5s0.2-0.5,0.5-0.5h21c0.3,0,0.5,0.2,0.5,0.5S49.7,45.3,49.4,45.3z M68.4,54.3h-12c-0.3,0-0.5-0.2-0.5-0.5
		s0.2-0.5,0.5-0.5h11.5v-15h-15v13.5c0,0.3-0.2,0.5-0.5,0.5s-0.5-0.2-0.5-0.5v-14c0-0.3,0.2-0.5,0.5-0.5h16c0.3,0,0.5,0.2,0.5,0.5
		v16C68.9,54.1,68.7,54.3,68.4,54.3z M49.4,38.3h-21c-0.3,0-0.5-0.2-0.5-0.5s0.2-0.5,0.5-0.5h21c0.3,0,0.5,0.2,0.5,0.5
		S49.7,38.3,49.4,38.3z"/>
</g>
<g id="Layer_2">
	<path class="st1" d="M37.1,56.7c-1,0-1.7-0.3-2.2-0.7c-1.4-1-2.3-2.8-2.3-5c-0.1-4.7,2.4-11.5,6.7-18.1
		c5.4-8.3,12.3-14.1,16.8-14.3c1,0,1.9,0.2,2.6,0.6c1.9,1.2,2.9,4.1,0.8,7.9c-0.3,0.5-0.9,0.7-1.4,0.4s-0.7-0.9-0.4-1.4
		c1.3-2.3,1.2-4.4-0.2-5.2c-0.3-0.2-0.7-0.3-1.3-0.3C52.9,20.7,46.6,25.4,41,34c-4.1,6.2-6.5,12.6-6.4,16.9c0,1.6,0.5,2.8,1.4,3.4
		l0.1,0.1c0.4,0.4,2.2,0.5,4.8-1.6c0.4-0.4,1.1-0.3,1.4,0.1c0.4,0.4,0.3,1.1-0.1,1.4C40.1,56.1,38.4,56.7,37.1,56.7z"/>
	<path class="st1" d="M62.6,44.6c-0.4,0-0.8-0.2-0.9-0.6c-0.2-0.5,0.1-1.1,0.6-1.3c2.5-1,4.3-2.6,4.3-4c0.2-2.9-7.2-6.3-19.8-7
		c-1.2-0.1-2.2-0.1-3.2-0.1c-9.9,0-16.9,2.1-17,5.1c-0.1,1.2,2,3.1,4.4,4c0.5,0.2,0.8,0.8,0.6,1.3s-0.8,0.8-1.3,0.6
		c-2.9-1.1-5.8-3.5-5.6-6c0.1-4.4,7.2-7,18.9-7c1,0,2.1,0,3.3,0.1c11,0.6,22,3.6,21.7,9.1c-0.1,2.3-2.3,4.5-5.6,5.8
		C62.8,44.6,62.7,44.6,62.6,44.6z"/>
	<path class="st1" d="M54.7,57.6c-0.6,0-1.3-0.1-2-0.4c-4.5-1.5-10.1-7.9-13.8-15.7c-2.5-5.2-4.2-11.9-4.3-17.2
		C34.5,21,35.3,18.9,37,18c0.5-0.2,1-0.4,1.5-0.4c1.6-0.1,3.5,0.9,5.8,3.3c0.4,0.4,0.4,1,0,1.4s-1,0.4-1.4,0
		c-2.4-2.4-3.7-2.7-4.2-2.7c-0.3,0-0.5,0.1-0.8,0.2c-0.9,0.5-1.4,2-1.3,4.5c0.1,4.1,1.3,10.8,4,16.4c4.1,8.5,9.4,13.6,12.7,14.7
		c0.9,0.3,1.7,0.3,2.3,0.1c1.9-1.7,1.2-9.8-2.9-19.4c-0.2-0.5,0-1.1,0.5-1.3s1.1,0,1.3,0.5c3.8,8.8,5.8,19.2,2.2,21.9h-0.1
		C56,57.5,55.4,57.6,54.7,57.6z"/>
	<path class="st1" d="M49.6,37.6c0,1.7-1.3,3-3,3s-3-1.3-3-3c0-1.7,1.3-3,3-3S49.6,35.9,49.6,37.6z"/>
</g>
</svg>
